# xmcd
#
# Track frame offsets:
#	150
#	8808
#	20733
#	32334
#	44424
#	56795
#	65823
#	80114
#	90478
#	100362
#	114318
#	127806
#	140025
#	152654
#	163684
#
# Disc length: 2342 seconds
#
# Revision: 0
# Processed by: cddbd v1.5.2PL0 Copyright (c) Steve Scherf et al.
# Submitted via: EasyCDDAExtractor 12.0.0.1
#
DISCID=c709240f
DTITLE=Simon Fox - In the Duck Shed
DYEAR=2000
DGENRE=Country
TTITLE0=Burlington
TTITLE1=Wintergreen
TTITLE2=Smithy's Porridge
TTITLE3=Wormwood Scrubs
TTITLE4=Murren
TTITLE5=More Ducks
TTITLE6=Lonely Train
TTITLE7=The Lazy Farmer
TTITLE8=Purple Turtle
TTITLE9=Lakes Entrance
TTITLE10=Chalk Farm
TTITLE11=The Windemere Days
TTITLE12=House Of Stairs
TTITLE13=The Bath People
TTITLE14=In The Duck Shed
EXTD=
EXTT0=
EXTT1=
EXTT2=
EXTT3=
EXTT4=
EXTT5=
EXTT6=
EXTT7=
EXTT8=
EXTT9=
EXTT10=
EXTT11=
EXTT12=
EXTT13=
EXTT14=
PLAYORDER=
